<svg id="Layer_1" data-name="Layer 1" xmlns="http://www.w3.org/2000/svg" viewBox="0 0 249.29 228.93"><defs><style>.cls-1{fill:#e2f2f2;}.cls-2{fill:#fff;}.cls-2,.cls-3,.cls-4{stroke:#4f18a9;}.cls-2,.cls-3,.cls-4,.cls-5{stroke-miterlimit:10;}.cls-2,.cls-4,.cls-5{stroke-width:2px;}.cls-3,.cls-4,.cls-5{fill:none;}.cls-3{stroke-width:5px;}.cls-5{stroke:#f36;}</style></defs><title>Application Forms</title><path class="cls-1" d="M198.57,209.91c-30.42,26-89.09,25.37-133.62-1.87C25.64,184-40.53,73,33.47,31.53,83.37,3.53,93.69,69,143.21,88.91,241,128.31,224.93,187.42,198.57,209.91Z"/><rect class="cls-2" x="131.58" y="14.9" width="101.94" height="135.92" transform="matrix(1, -0.07, 0.07, 1, -5.08, 12.26)"/><polyline class="cls-3" points="136.74 18.38 145.12 144.63 237.69 138.49"/><rect class="cls-2" x="141.9" y="4.29" width="101.94" height="135.92" transform="translate(-4.36 12.92) rotate(-3.79)"/><line class="cls-4" x1="150.03" y1="26.26" x2="205.53" y2="22.58"/><line class="cls-4" x1="149.51" y1="18.42" x2="211.31" y2="14.32"/><rect class="cls-2" x="218.86" y="13.46" width="11.25" height="11.25" transform="matrix(1, -0.07, 0.07, 1, -0.77, 14.9)"/><polyline class="cls-5" points="221.41 18.43 224.96 20.9 231.5 10.2"/><line class="cls-4" x1="151.58" y1="49.69" x2="207.08" y2="46.01"/><line class="cls-4" x1="151.06" y1="41.85" x2="212.87" y2="37.75"/><rect class="cls-2" x="220.42" y="36.89" width="11.25" height="11.25" transform="translate(-2.32 15.05) rotate(-3.79)"/><polyline class="cls-5" points="222.97 41.86 226.51 44.33 233.05 33.63"/><line class="cls-4" x1="153.14" y1="73.12" x2="208.63" y2="69.44"/><line class="cls-4" x1="152.62" y1="65.28" x2="214.42" y2="61.18"/><rect class="cls-2" x="221.97" y="60.32" width="11.25" height="11.25" transform="translate(-3.87 15.21) rotate(-3.79)"/><polyline class="cls-5" points="224.52 65.3 228.06 67.76 234.61 57.07"/><line class="cls-4" x1="154.69" y1="96.55" x2="210.19" y2="92.87"/><line class="cls-4" x1="154.17" y1="88.72" x2="215.98" y2="84.62"/><rect class="cls-2" x="223.53" y="83.75" width="11.25" height="11.25" transform="matrix(1, -0.07, 0.07, 1, -5.41, 15.36)"/><line class="cls-4" x1="156.24" y1="119.99" x2="211.74" y2="116.31"/><line class="cls-4" x1="155.72" y1="112.15" x2="217.53" y2="108.05"/><rect class="cls-2" x="225.08" y="107.19" width="11.25" height="11.25" transform="translate(-6.96 15.52) rotate(-3.79)"/><polyline class="cls-5" points="227.63 112.16 231.17 114.63 237.72 103.93"/><rect class="cls-2" x="68.33" y="52.1" width="104.18" height="138.91"/><rect class="cls-2" x="79.58" y="39.74" width="104.18" height="138.91"/><polyline class="cls-3" points="89.32 40.34 89.32 169.65 184.14 169.65"/><polyline class="cls-3" points="77.7 51.96 77.7 180.14 172.52 180.14"/><rect class="cls-2" x="90.82" y="29.62" width="104.18" height="138.91"/><rect class="cls-1" x="100.52" y="40.95" width="86.24" height="30.42"/><line class="cls-4" x1="99.81" y1="109.83" x2="185.64" y2="109.83"/><line class="cls-4" x1="99.81" y1="117.91" x2="185.64" y2="117.91"/><line class="cls-4" x1="99.81" y1="101.8" x2="185.64" y2="101.8"/><line class="cls-4" x1="99.81" y1="94.09" x2="185.64" y2="94.09"/><line class="cls-4" x1="99.81" y1="86.06" x2="185.64" y2="86.06"/><line class="cls-4" x1="99.81" y1="125.98" x2="151.87" y2="125.98"/><line class="cls-4" x1="106.18" y1="158.02" x2="180.95" y2="158.02"/><path class="cls-5" d="M108.7,149.81l4.52-.93c.54-.11,1.19-.19,1.55.22s.08,1.54.58,2.08a1.36,1.36,0,0,0,1.43.15c2.19-.76,3.4-3,4.78-4.89s3.73-3.59,5.85-2.65c2.54,1.13,2.29,4.77,1.61,7.47a7,7,0,0,0,7.56-2.63l.56,3.38a12.22,12.22,0,0,1,8-.74,18.33,18.33,0,0,1,3.28-5,6.21,6.21,0,0,1,5.45-1.88c-.51,2-.78,4.57,1,5.6,2.4,1.39,5.73-1.87,8-.3"/></svg>