<svg id="Layer_1" data-name="Layer 1" xmlns="http://www.w3.org/2000/svg" viewBox="0 0 260.07 203.69"><defs><style>.cls-1{fill:#e2f2f2;}.cls-2,.cls-4,.cls-5,.cls-6,.cls-8{fill:none;}.cls-2,.cls-3,.cls-4,.cls-7,.cls-8{stroke:#4f18a9;}.cls-2,.cls-3,.cls-4,.cls-5,.cls-6,.cls-7,.cls-8{stroke-miterlimit:10;}.cls-2{stroke-width:5px;}.cls-3,.cls-7{fill:#fff;}.cls-3,.cls-6,.cls-8{stroke-linecap:round;}.cls-3,.cls-4,.cls-5,.cls-6,.cls-7,.cls-8{stroke-width:2px;}.cls-5,.cls-6{stroke:#73c68f;}.cls-9{fill:#4f18a9;}</style></defs><title>Permits</title><path class="cls-1" d="M256.83,67.38c12.7,39.64-12.93,92.42-58.91,119.95-40.6,24.31-178.7,32.26-188.2-54.06-6.41-58.21,62.77-37,103.67-72.4C194.15-9.12,245.82,33,256.83,67.38Z"/><polyline class="cls-2" points="72.8 2.88 72.8 162.93 193.12 162.93"/><rect class="cls-3" x="74.53" y="1" width="120.47" height="160.63"/><line class="cls-4" x1="86.67" y1="40.11" x2="181.33" y2="40.11"/><line class="cls-4" x1="86.67" y1="48.18" x2="181.33" y2="48.18"/><line class="cls-4" x1="86.67" y1="32.08" x2="181.33" y2="32.08"/><line class="cls-4" x1="86.67" y1="24.37" x2="181.33" y2="24.37"/><line class="cls-4" x1="86.67" y1="16.34" x2="181.33" y2="16.34"/><line class="cls-4" x1="86.67" y1="56.26" x2="144.08" y2="56.26"/><line class="cls-4" x1="86.67" y1="89.42" x2="131.33" y2="89.42"/><line class="cls-4" x1="86.67" y1="81.7" x2="181.33" y2="81.7"/><line class="cls-4" x1="86.67" y1="73.68" x2="181.33" y2="73.68"/><polygon class="cls-3" points="181.79 179.94 172.71 176.13 166.43 183.19 154.84 128.32 170.21 125.07 181.79 179.94"/><polygon class="cls-3" points="140.71 179.94 149.79 176.13 156.07 183.19 167.66 128.32 152.29 125.07 140.71 179.94"/><polygon class="cls-3" points="161.18 113.68 167.46 118.05 175.11 118.21 177.63 125.43 183.72 130.06 181.51 137.39 183.72 144.71 177.63 149.34 175.11 156.57 167.46 156.73 161.18 161.09 154.89 156.73 147.24 156.57 144.72 149.34 138.63 144.71 140.84 137.39 138.63 130.06 144.72 125.43 147.24 118.21 154.89 118.05 161.18 113.68"/><circle class="cls-3" cx="161.17" cy="137.39" r="14.28"/><circle class="cls-5" cx="103.92" cy="120.11" r="15.75"/><polyline class="cls-6" points="95.92 121.61 103.17 127.36 120.17 103.86"/><rect class="cls-7" x="51.95" y="32.48" width="35.58" height="41.88"/><path class="cls-7" d="M20.89,41.19a13.61,13.61,0,0,0-1.8-.76l-.33-.14a25.8,25.8,0,0,0-4.05-.59,13.72,13.72,0,1,0,4.05,26.83h0a13.6,13.6,0,0,0,2.35-1c18.9-7.77,23.25-5.66,23.25-5.66V46.95S40,49.09,20.89,41.19Z"/><path class="cls-7" d="M49.46,32.46h6.79a0,0,0,0,1,0,0V74.39a0,0,0,0,1,0,0H49.46a6.5,6.5,0,0,1-6.5-6.5V39A6.5,6.5,0,0,1,49.46,32.46Z"/><line class="cls-7" x1="51.34" y1="32.57" x2="51.34" y2="74.29"/><ellipse class="cls-5" cx="71.23" cy="53.19" rx="10.1" ry="15.67"/><polyline class="cls-5" points="66.5 53.44 70.75 59.56 82.42 38.56"/><line class="cls-8" x1="18.77" y1="40.32" x2="18.77" y2="66.31"/><line class="cls-8" x1="14.46" y1="40.32" x2="14.46" y2="66.31"/><path class="cls-9" d="M11.14,66.32c3.52,1.6,7.56.78,11.11-.71s6.55-3.52,10.59-5a17.16,17.16,0,0,1,9.12-1,1.19,1.19,0,0,0,.33-2.35,20.3,20.3,0,0,0-13.16,1.13,28.88,28.88,0,0,1-13.2,2.48A8.2,8.2,0,0,1,13,60.34c-1.79-.81-5.17-4-6.39-.55C5.57,62.73,9.15,65.41,11.14,66.32Z"/><path class="cls-9" d="M45.22,71.74a8.79,8.79,0,0,0,1.36,1.59c1.8,1.54,4.43,1.48,6.79,1.33a2,2,0,0,0,.83-.17c.34-.18.56-.56.9-.73a3.1,3.1,0,0,0,.6-.26,1.18,1.18,0,0,0,.3-1l0-3.81c-1.35-.17-2.72,0-4.08,0a4.68,4.68,0,0,1-3.62-1.56c-.24-.32-.41-.68-.65-1-.92-1.2-3.3-1.55-4.17-.13C42.41,67.74,44.28,70.42,45.22,71.74Z"/></svg>