<svg id="Layer_1" data-name="Layer 1" xmlns="http://www.w3.org/2000/svg" viewBox="0 0 320.6 244.74"><defs><style>.cls-1{fill:#e2f2f2;}.cls-2,.cls-3,.cls-4{fill:#fff;}.cls-2,.cls-3,.cls-5,.cls-7,.cls-8{stroke:#4f18a9;stroke-miterlimit:10;}.cls-2,.cls-5,.cls-8{stroke-width:2px;}.cls-3,.cls-7{stroke-width:5px;}.cls-5,.cls-7{fill:none;}.cls-6{fill:#4f18a9;}.cls-8{fill:#f36;}</style></defs><title>Requirements</title><path class="cls-1" d="M4.59,157.08c17.65-45.61,81.91-84,146.68-87C208.46,67.54,359.92,151.88,311,222.37c-32.69,47.14-108,3-173.89,16.35C7.09,265.12-10.7,196.6,4.59,157.08Z"/><polygon class="cls-2" points="235.15 51.34 171.35 38.36 107.55 51.34 43.75 38.36 43.75 196.24 107.55 209.22 171.35 196.24 235.15 209.22 298.95 196.24 298.95 38.36 235.15 51.34"/><polyline class="cls-3" points="107.45 66.13 58.12 56.1 58.12 184.3 107.45 194.34"/><polygon class="cls-4" points="64.57 114.21 51.6 111.57 51.6 77.88 64.57 80.51 64.57 114.21"/><line class="cls-3" x1="171.55" y1="180.73" x2="234.97" y2="193.63"/><polyline class="cls-3" points="235.06 145.04 211.73 141.04 211.73 189.75"/><line class="cls-3" x1="235.58" y1="65.79" x2="171.55" y2="52.77"/><line class="cls-3" x1="108.08" y1="149.11" x2="60.56" y2="139.45"/><line class="cls-3" x1="171.06" y1="181.14" x2="107.65" y2="194.04"/><line class="cls-3" x1="107.04" y1="66.2" x2="171.06" y2="53.18"/><polyline class="cls-3" points="234.84 145.01 285.4 134.72 285.4 183.84 236.06 193.88"/><line class="cls-5" x1="107.75" y1="51.64" x2="107.75" y2="209.52"/><line class="cls-5" x1="58.22" y1="62.43" x2="58.22" y2="128.47"/><line class="cls-5" x1="276.94" y1="102.71" x2="276.94" y2="134.51"/><line class="cls-5" x1="269.91" y1="105.16" x2="269.91" y2="136.96"/><line class="cls-5" x1="262.87" y1="107.61" x2="262.87" y2="139.4"/><line class="cls-5" x1="255.84" y1="106.17" x2="255.84" y2="141.17"/><line class="cls-5" x1="248.81" y1="108.93" x2="248.81" y2="142.11"/><line class="cls-5" x1="241.78" y1="111.53" x2="241.78" y2="143.94"/><line class="cls-5" x1="235.36" y1="51.64" x2="235.36" y2="209.52"/><polyline class="cls-3" points="235.36 65.97 235.36 111.22 235.76 111.15 284.81 101.17 285.4 101.08 285.4 55.64 235.27 65.82"/><ellipse class="cls-1" cx="171.37" cy="124.33" rx="24.99" ry="8.15"/><path class="cls-4" d="M81.56,144.75a19.67,19.67,0,0,1,20-19.32l-.34,23.68"/><polygon class="cls-4" points="81.57 149.15 101.14 151.59 101.14 142.34 81.57 142.34 81.57 149.15"/><path class="cls-5" d="M80.29,145.85a22,22,0,0,1,22.41-21.61l-.38,26.5"/><path class="cls-4" d="M213.35,157.91a15.4,15.4,0,0,1,13.12,17.38l-21.36-3.64,2.39-14.54Z"/><path class="cls-5" d="M212.54,156.52a17.72,17.72,0,0,1,15.1,20l-18.17-2.83"/><path class="cls-4" d="M234.85,78.35a19.67,19.67,0,0,1,23,15.58l-29,5.9,2-20.64Z"/><path class="cls-5" d="M233.51,77.33A22,22,0,0,1,259.3,94.77l-26,5.13"/><polygon class="cls-4" points="90.96 180.94 73.67 177.42 73.67 193.66 90.96 197.17 90.96 180.94"/><line class="cls-5" x1="69.86" y1="186.59" x2="97.22" y2="192.1"/><line class="cls-5" x1="171.56" y1="38.67" x2="171.56" y2="196.55"/><line class="cls-2" x1="270.43" y1="138.44" x2="270.43" y2="188.58"/><rect class="cls-2" x="263.81" y="152.45" width="11.82" height="19.98" rx="4.83" ry="4.83"/><circle class="cls-6" cx="271.1" cy="162.44" r="1.48"/><polyline class="cls-7" points="140.37 58.85 140.37 142.31 107.24 149.09"/><path class="cls-8" d="M218,47.58c0,36.69-46.58,71.72-46.58,71.72s-46.58-33.55-46.58-71.72a46.58,46.58,0,1,1,93.16,0Z"/><circle class="cls-2" cx="171.37" cy="48.41" r="20.33"/><polygon class="cls-4" points="278.98 96.58 291.94 93.94 291.94 60.25 278.98 62.89 278.98 96.58"/><line class="cls-5" x1="285.32" y1="56.17" x2="285.32" y2="101.8"/></svg>