<svg id="Layer_1" data-name="Layer 1" xmlns="http://www.w3.org/2000/svg" viewBox="0 0 684.87 247.03"><defs><style>.cls-1{fill:none;}</style></defs><title>Artboard 42 copy 2</title><path class="cls-1" d="M167.52,197.23c7.58-3.08,27.93-13.54,31-24.82.57-2.09,1.6-5.62-1.71-9.3-2.06-2.29-7.14-3.09-13.56-.45-16,6.6-23.64,22.45-25,37.73Z"/><path class="cls-1" d="M482.85,205.25c4-24.74,11.87-56.57,17.91-79.31q-10.37-.08-20.36-.12c-5,18.59-11.52,44.36-16,67.09a5.9,5.9,0,0,1-.08.74c-.31,1.73-.65,3.37-1,5-.53,2.9-1,5.74-1.47,8.49-1.88,11.73.27,15.81,1.28,17,.56.67,1.5,1.44,3.88,1.48,2,0,7.23.13,14.91-11.63A68.1,68.1,0,0,1,482.85,205.25Z"/><path class="cls-1" d="M537.43,195.45c6.48-2.63,25.59-12.43,28.35-22.62.5-1.84,1.58-5.74-1.8-8.35-2.37-1.83-6.07-2.21-10.72-.4-10.88,4.25-21.74,16.65-23.58,35Z"/><path class="cls-1" d="M629.3,205.53a213.26,213.26,0,0,1,6.09-30.85l0-.05c-5.46-9.16-13.83-13-22.39-10.19-11.31,3.67-22.45,19-20.19,43.82.57,6.22,5.77,14.12,13.49,16.58,7.26,2.31,15-.7,22.44-8.7A81,81,0,0,1,629.3,205.53Z"/><path d="M191.12,121c20.62-15,35.23-31.18,43.42-48.22C247,47,240.22,28.28,239.93,27.5l-.29-.65C232.56,13.27,221.7,4.73,207.37,1.48,161.09-9,94.29,39.76,86.83,45.36,57.67,67.23,35.5,89,20.93,110,9.11,127.13,2.22,143.82.45,159.65c-2.89,25.84,9,40.11,9.47,40.7,7.61,8.95,17.92,13.5,30.3,13.5a62.51,62.51,0,0,0,16-2.24,96.62,96.62,0,0,0,25.29-11,5.88,5.88,0,1,0-6.42-9.85,85.18,85.18,0,0,1-21.88,9.53c-15.12,4-26.67,1.49-34.33-7.51-.09-.11-9.07-10.94-6.74-31.78,4.52-40.49,46.95-80.1,81.74-106.19,25.47-19.1,77.49-49.4,110.89-41.82C215.59,15.4,223.52,21.6,229,31.88c.62,2.06,4.33,16.29-5,35.81-9.77,20.32-34.59,48.25-96,74.84,9.21-28.41,16.5-46.52,16.64-46.86a5.88,5.88,0,0,0-10.89-4.42c-.16.39-9.2,22.86-19.95,57.14-9.62,3.79-20,7.54-31.29,11.22a5.88,5.88,0,0,0,3.65,11.17q12.08-3.95,23.29-8.13C102.69,185.33,95.68,211.88,90,240a5.88,5.88,0,1,0,11.52,2.32c6.34-31.46,14.39-60.94,21.81-85.1C150.38,146.21,173.09,134.09,191.12,121Z"/><path d="M684.21,83.21a5.88,5.88,0,0,0-10.44-5.41c-.1.19-9.73,18.83-19.94,43.65q-8.68,21.09-14.4,39.36c-8.21-8.21-19.12-11.1-30.1-7.54-14.45,4.69-28,20.74-28.59,46.66-10.72,18.42-24,27.42-36.39,24.7-7.62-1.66-12.92-7.42-14.34-12.68,4-1.54,39.66-13.12,47.11-36a19.94,19.94,0,0,0-3.05-19c-4.8-6.26-15.14-7.67-25.08-3.78-8.81,3.44-17.09,10.63-22.71,19.72-6.32,10.22-9.24,22.52-8.51,35.71-9.46,17.22-15.75,17.12-18.15,17.07s-3.33-.82-3.88-1.48c-1-1.21-3.16-5.29-1.28-17,4.08-25.37,12.39-58.47,18.44-81.07q56.41.56,123.41,2.53a5.88,5.88,0,0,0,.36-11.75q-65.23-2-120.58-2.5c2.36-8.55,3.92-13.91,4-14.09a5.88,5.88,0,0,0-11.28-3.3c-.06.21-2,6.89-4.85,17.28q-10.35-.09-20.33-.13c2.32-8.41,3.86-13.67,3.91-13.85a5.88,5.88,0,1,0-11.28-3.3c-.06.2-2,6.81-4.81,17.11-149.58-.33-231.94,5.88-233,6a5.88,5.88,0,0,0,.45,11.74l.46,0c1.06-.08,81.89-6.18,228.93-5.94-5.35,20.13-12.17,47.43-16.43,70.63-6.6,29.59-20,29.81-21.56,29.72l-.37,0a6.26,6.26,0,0,1-5-2.78c-5-7.15-3-25.5-.18-37.51q1.72-4.76,3.48-10.1A5.88,5.88,0,1,0,417,172c-7.32,22.26-14.51,37.83-21.35,46.29-5.22,6.45-8.93,7.31-11.87,7.31-2.31,0-3-.79-3.2-1.08-.54-.66-2.2-3.44-.65-11.48,4.82-25,7.88-35.79,7.91-35.89l.13-.56c3.48-19-8.84-23.93-12.07-24.88h0c-.54-.17-10.19-3.09-19.58,7.3-.12-.19-.23-.4-.36-.59a17,17,0,0,0-10.05-6.87c-2.07-.48-9.45-1.52-17.14,5.31-4.07-4-8.09-4.43-10.79-4-10.42,1.66-17.62,16.33-34.32,52.3-7,13.82-13,19.58-16.39,20.36a2,2,0,0,1-1.86-.41c-2.15-1.63-4.06-10.27,2.44-32.31a274.45,274.45,0,0,1,10.58-29h6.07a5.88,5.88,0,0,0,0-11.75H241.2c.43-1.38.85-2.78,1.27-4.21a5.88,5.88,0,0,0-11.27-3.33c-18.35,62.2-42.12,82.95-58.23,81.68a16,16,0,0,1-14.31-12.45,5.94,5.94,0,0,0,.72-.23c.33-.13,20.64-8.7,29-14,12-7.58,19.18-15.66,21.45-24a22.6,22.6,0,0,0-3.8-20.34c-5.24-6.83-16.12-8-27.28-3.37-9.54,3.93-18.35,11.72-24.18,21.38-7,11.67-9.75,25.76-7.85,40.75a27.78,27.78,0,0,0,25.27,24c.69.06,1.44.09,2.25.09,13.13,0,40.39-8.9,63.08-74.19h28.31c-2.38,5.8-6.06,15.35-9.07,25.56-7.21,24.42-6.67,38.76,1.71,45.11a13.61,13.61,0,0,0,8.33,2.88,14.53,14.53,0,0,0,3.29-.39c8.19-1.9,16.36-10.86,24.28-26.61l.08-.17c6.48-14,12.08-26,16.78-34.33,5.31-9.38,7.93-11.05,8.62-11.35.86-.57,2.35-.37,2.27.76a61.49,61.49,0,0,0-4.72,9.76c-.72,1.74-9.34,22.76-15.93,55.27a5.88,5.88,0,1,0,11.52,2.33c6.48-32,15.19-52.92,15.28-53.13l.07-.17c5.4-14,11.92-16.86,14.78-16.43l.69.15a5.42,5.42,0,0,1,2.65,2c1.36,2,1.68,5.21.9,9.35a5.94,5.94,0,0,0-.08.62v0c-.7,1.73-9.13,22.75-15.57,55.25a5.88,5.88,0,1,0,11.53,2.28c6.34-32,14.86-52.94,14.94-53.14l.07-.17c5.23-13.89,11.47-16.8,14.24-16.4l.71.15c.05,0,5.18,1.07,3.43,11.14-.54,2-3.52,13-8.07,36.6-1.81,9.36-.76,16.5,3.12,21.19,2,2.44,5.78,5.35,12.27,5.35,7.77,0,16.68-3.12,26.89-20.35a29.57,29.57,0,0,0,4.57,13,18,18,0,0,0,13.69,7.75c.31,0,.8.06,1.44.06,3.76,0,12.74-1.19,20.88-11.21a18.1,18.1,0,0,0,2.93,5c2.11,2.53,6,5.57,12.68,5.7h.45c6.43,0,12.2-2.67,17.67-8.24a17.26,17.26,0,0,0,1.75,2.54c2.11,2.53,6,5.57,12.68,5.7h.46c8.42,0,15.64-4.48,22.61-14.18a32,32,0,0,0,19.38,12.9,32.77,32.77,0,0,0,7,.76c12.11,0,24-6.8,34.2-19.51,3.45,8.59,10.84,15.88,19.65,18.68a27.73,27.73,0,0,0,8.39,1.3c5.77,0,13-1.8,20.63-8a16.48,16.48,0,0,0,1.94,2.75c2.05,2.34,5.84,5.16,12.21,5.28h.46c10.95,0,19.86-7.53,28.85-24.32a5.88,5.88,0,0,0-10.36-5.54c-9.78,18.28-16.28,18.14-18.72,18.11-2.23,0-3.1-.71-3.6-1.28-2.05-2.34-2.56-8.23-1.52-17.51C646.67,156.1,683.84,83.93,684.21,83.21Zm-501,79.45c6.42-2.64,11.5-1.85,13.56.45,3.31,3.68,2.28,7.2,1.71,9.3-3.06,11.28-23.42,21.74-31,24.82l-9.3,3.17C159.61,185.11,167.22,169.26,183.25,162.66Zm283.82,63c-2.38,0-3.33-.82-3.88-1.48-1-1.21-3.16-5.29-1.28-17,.44-2.75.93-5.59,1.47-8.49.35-1.6.69-3.24,1-5a5.9,5.9,0,0,0,.08-.74c4.44-22.73,11-48.5,16-67.09q10,0,20.36.12c-6,22.74-13.94,54.57-17.91,79.31A68.1,68.1,0,0,0,482,214C474.3,225.76,469.07,225.67,467.07,225.63Zm86.2-61.54c4.65-1.82,8.35-1.44,10.72.4,3.37,2.61,2.3,6.51,1.8,8.35-2.77,10.18-21.88,20-28.35,22.62l-7.74,3.65C531.53,180.74,542.39,168.34,553.27,164.08Zm53,60.75c-7.73-2.46-12.93-10.36-13.49-16.58-2.26-24.87,8.88-40.14,20.19-43.82,8.57-2.78,16.94,1,22.39,10.19l0,.05a213.26,213.26,0,0,0-6.09,30.85,81,81,0,0,0-.6,10.6C621.25,224.13,613.52,227.14,606.26,224.83Z"/><path d="M435.51,154.58c1.53-4.21,1-9.12-2.39-10.34s-7,.64-9,5c-3.59,8.1,1.12,10.76,2.81,11.37C430.3,161.89,434,158.8,435.51,154.58Z"/></svg>